# xmcd
#
# Track frame offsets:
#	150
#	25557
#	44239
#	57913
#	73156
#	92434
#	120278
#	161128
#	190007
#	213997
#	235257
#
# Disc length: 3567 seconds
#
# Revision: 0
# Processed by: cddbd v1.5.1PL2 Copyright (c) Steve Scherf et al.
# Submitted via: dBpowerAMP V4.0
#
DISCID=910ded0b
DTITLE=Big Gilson - Live At Bamboo Room
DYEAR=1900
DGENRE=Blues
TTITLE0=Shake Your Money Maker
TTITLE1=I Just Wanna Make Love To You
TTITLE2=Tribute To Roy Buchannan
TTITLE3=I'Tore Down
TTITLE4=Ghreen's Boogie
TTITLE5=Big G Billy
TTITLE6=Tropical Feelin' Blues
TTITLE7=Chitlins Con Carne
TTITLE8=Dimples
TTITLE9=Cab Driver Blues
TTITLE10=Medley Brazil
EXTD=Exclente álbum de blues ao vivo, vale a pena ouvir
EXTT0=
EXTT1=
EXTT2=
EXTT3=
EXTT4=
EXTT5=
EXTT6=
EXTT7=
EXTT8=
EXTT9=
EXTT10=
PLAYORDER=
